<svg width="79" height="129" viewBox="0 0 79 129" fill="none" xmlns="http://www.w3.org/2000/svg">
<g clip-path="url(#clip0_1_2437)">
<path d="M0 0V73.5071C0 86.8164 10.7538 97.5798 23.9793 97.5798C23.9793 97.5798 44.9411 97.322 48.087 86.8486C48.087 86.8486 45.8399 89.8134 36.2097 89.8134C36.2097 89.8134 28.4413 89.9423 27.1252 82.9493C26.9967 82.3048 26.9646 81.6925 26.9646 81.048V18.7232C26.9967 8.37872 18.6505 0 8.3462 0H0Z" fill="white"/>
<path d="M78.9991 129V55.4926C78.9991 42.1833 68.2453 31.4199 55.0198 31.4199C55.0198 31.4199 34.058 31.6777 30.9121 42.1511C30.9121 42.1511 33.1592 39.1863 42.7894 39.1863C42.7894 39.1863 50.5578 39.0574 51.8739 46.0504C52.0023 46.695 52.0344 47.3073 52.0344 47.9518V110.277C52.0344 120.621 60.3806 129 70.685 129H78.9991Z" fill="white"/>
</g>
<defs>
<clipPath id="clip0_1_2437">
<rect width="79" height="129" fill="white"/>
</clipPath>
</defs>
</svg>
