<svg width="20" height="25" viewBox="0 0 20 25" fill="none" xmlns="http://www.w3.org/2000/svg">
<path id="Vector" d="M4.9701 24.4107C4.47309 24.2424 3.97608 23.9057 3.64474 23.2323C3.3134 22.8956 2.98206 22.3905 2.48505 21.7171C1.82237 20.707 1.15969 19.3602 0.66268 18.0134C0.16567 16.4983 0 14.9831 0 13.468C0 11.7845 0.33134 10.4377 0.99402 9.25925C1.49103 8.24915 2.31938 7.57575 3.14773 6.90235C3.97608 6.3973 4.9701 6.0606 5.96412 6.0606C6.29546 6.0606 6.6268 6.0606 7.12381 6.22895C7.45515 6.22895 7.78649 6.3973 8.2835 6.56565C8.78051 6.734 9.11185 6.90235 9.27752 6.90235C9.60886 7.0707 9.9402 7.0707 10.1059 7.0707C10.2715 7.0707 10.4372 7.0707 10.7686 6.90235C10.9342 6.90235 11.2656 6.734 11.5969 6.56565C11.9282 6.3973 12.2596 6.22895 12.5909 6.22895C12.9223 6.22895 13.2536 6.0606 13.5849 6.0606C13.9163 6.0606 14.4133 5.89225 14.7446 6.0606C15.4073 6.0606 16.07 6.22895 16.7327 6.56565C17.7267 6.90235 18.555 7.7441 19.2177 8.58585C19.0521 8.58585 18.7207 8.7542 18.555 9.0909C18.058 9.59595 17.561 10.101 17.2297 10.606C16.8983 11.4478 16.567 12.2895 16.567 13.2996C16.567 14.4781 16.8983 15.4882 17.3954 16.3299C17.7267 17.0033 18.3894 17.5084 18.8864 17.8451C19.3834 18.0135 19.7147 18.1818 19.8804 18.3501C19.8804 18.6868 19.7147 19.1919 19.5491 19.3602C19.2177 20.3703 18.7207 21.0437 18.2237 21.8855C17.7267 22.5589 17.3954 23.0639 17.2297 23.2323C16.7327 23.7373 16.4013 24.2424 15.9043 24.4107C15.573 24.7474 15.076 24.9158 14.4133 24.9158C14.082 24.9158 13.7506 24.9158 13.4193 24.7474C13.2536 24.7474 12.9223 24.5791 12.5909 24.4107C12.0939 24.2424 11.9282 24.074 11.5969 24.074C11.2656 23.9057 10.7686 23.9057 10.4372 23.9057C10.1059 23.9057 9.60886 23.9057 9.27752 24.074C8.94618 24.074 8.61484 24.2424 8.2835 24.4107C7.78649 24.5791 7.62082 24.7474 7.45515 24.7474C7.12381 24.9158 6.79247 24.9158 6.46113 24.9158C5.96412 24.9158 5.46711 24.7474 4.9701 24.4107ZM11.9282 5.21885C11.2656 5.55555 10.6029 5.7239 9.9402 5.7239C9.77453 5.0505 9.9402 4.3771 10.2715 3.53535C10.6029 2.86195 10.7686 2.3569 11.2656 1.85185C11.7626 1.3468 12.2596 0.84175 12.9223 0.50505C13.5849 0.16835 14.2476 0 14.9103 0C14.9103 0.6734 14.7446 1.3468 14.579 2.18855C14.4133 2.86195 13.9163 3.367 13.5849 3.87205C13.0879 4.54545 12.5909 4.88215 11.9282 5.21885Z" fill="white"/>
</svg>
