<svg width="20" height="25" viewBox="0 0 20 25" fill="none" xmlns="http://www.w3.org/2000/svg">
<path d="M5 24.4932C4.5 24.3243 4 23.9865 3.66667 23.3108C3.33333 22.973 3 22.4662 2.5 21.7905C1.83333 20.777 1.16667 19.4257 0.666667 18.0743C0.166667 16.5541 0 15.0338 0 13.5135C0 11.8243 0.333333 10.473 1 9.29054C1.5 8.27703 2.33333 7.60135 3.16667 6.92568C4 6.41892 5 6.08108 6 6.08108C6.33333 6.08108 6.66667 6.08108 7.16667 6.25C7.5 6.25 7.83333 6.41892 8.33333 6.58784C8.83333 6.75676 9.16667 6.92568 9.33333 6.92568C9.66667 7.0946 10 7.09459 10.1667 7.09459C10.3333 7.09459 10.5 7.0946 10.8333 6.92568C11 6.92568 11.3333 6.75676 11.6667 6.58784C12 6.41892 12.3333 6.25 12.6667 6.25C13 6.25 13.3333 6.08108 13.6667 6.08108C14 6.08108 14.5 5.91216 14.8333 6.08108C15.5 6.08108 16.1667 6.25 16.8333 6.58784C17.8333 6.92568 18.6667 7.77027 19.3333 8.61487C19.1667 8.61487 18.8333 8.78378 18.6667 9.12162C18.1667 9.62838 17.6667 10.1351 17.3333 10.6419C17 11.4865 16.6667 12.3311 16.6667 13.3446C16.6667 14.527 17 15.5405 17.5 16.3851C17.8333 17.0608 18.5 17.5676 19 17.9054C19.5 18.0743 19.8333 18.2432 20 18.4122C20 18.75 19.8333 19.2568 19.6667 19.4257C19.3333 20.4392 18.8333 21.1149 18.3333 21.9595C17.8333 22.6351 17.5 23.1419 17.3333 23.3108C16.8333 23.8176 16.5 24.3243 16 24.4932C15.6667 24.8311 15.1667 25 14.5 25C14.1667 25 13.8333 25 13.5 24.8311C13.3333 24.8311 13 24.6622 12.6667 24.4932C12.1667 24.3243 12 24.1554 11.6667 24.1554C11.3333 23.9865 10.8333 23.9865 10.5 23.9865C10.1667 23.9865 9.66667 23.9865 9.33333 24.1554C9 24.1554 8.66667 24.3243 8.33333 24.4932C7.83333 24.6622 7.66667 24.8311 7.5 24.8311C7.16667 25 6.83333 25 6.5 25C6 25 5.5 24.8311 5 24.4932ZM12 5.23649C11.3333 5.57432 10.6667 5.74324 10 5.74324C9.83333 5.06757 10 4.39189 10.3333 3.5473C10.6667 2.87162 10.8333 2.36486 11.3333 1.85811C11.8333 1.35135 12.3333 0.844595 13 0.506757C13.6667 0.168919 14.3333 0 15 0C15 0.675676 14.8333 1.35135 14.6667 2.19595C14.5 2.87162 14 3.37838 13.6667 3.88514C13.1667 4.56081 12.6667 4.89865 12 5.23649Z" fill="#212121"/>
</svg>
