<svg width="26" height="33" viewBox="0 0 26 33" fill="none" xmlns="http://www.w3.org/2000/svg">
<path d="M6.5 31.9249C5.85 31.7047 5.2 31.2644 4.76667 30.3837C4.33333 29.9433 3.9 29.2828 3.25 28.4021C2.38333 27.0811 1.51667 25.3197 0.866667 23.5584C0.216667 21.5768 0 19.5953 0 17.6137C0 15.412 0.433333 13.6506 1.3 12.1094C1.95 10.7884 3.03333 9.90772 4.11667 9.02703C5.2 8.36652 6.5 7.92618 7.8 7.92618C8.23333 7.92618 8.66667 7.92618 9.31667 8.14635C9.75 8.14635 10.1833 8.36652 10.8333 8.58669C11.4833 8.80686 11.9167 9.02703 12.1333 9.02703C12.5667 9.24721 13 9.2472 13.2167 9.2472C13.4333 9.2472 13.65 9.24721 14.0833 9.02703C14.3 9.02703 14.7333 8.80686 15.1667 8.58669C15.6 8.36652 16.0333 8.14635 16.4667 8.14635C16.9 8.14635 17.3333 7.92618 17.7667 7.92618C18.2 7.92618 18.85 7.706 19.2833 7.92618C20.15 7.92618 21.0167 8.14635 21.8833 8.58669C23.1833 9.02703 24.2667 10.1279 25.1333 11.2287C24.9167 11.2287 24.4833 11.4489 24.2667 11.8893C23.6167 12.5498 22.9667 13.2103 22.5333 13.8708C22.1 14.9717 21.6667 16.0725 21.6667 17.3936C21.6667 18.9348 22.1 20.2558 22.75 21.3566C23.1833 22.2373 24.05 22.8978 24.7 23.3382C25.35 23.5584 25.7833 23.7785 26 23.9987C26 24.439 25.7833 25.0996 25.5667 25.3197C25.1333 26.6408 24.4833 27.5214 23.8333 28.6223C23.1833 29.503 22.75 30.1635 22.5333 30.3837C21.8833 31.0442 21.45 31.7047 20.8 31.9249C20.3667 32.3652 19.7167 32.5854 18.85 32.5854C18.4167 32.5854 17.9833 32.5854 17.55 32.3652C17.3333 32.3652 16.9 32.145 16.4667 31.9249C15.8167 31.7047 15.6 31.4845 15.1667 31.4845C14.7333 31.2644 14.0833 31.2644 13.65 31.2644C13.2167 31.2644 12.5667 31.2644 12.1333 31.4845C11.7 31.4845 11.2667 31.7047 10.8333 31.9249C10.1833 32.145 9.96667 32.3652 9.75 32.3652C9.31667 32.5854 8.88333 32.5854 8.45 32.5854C7.8 32.5854 7.15 32.3652 6.5 31.9249ZM15.6 6.82532C14.7333 7.26566 13.8667 7.48583 13 7.48583C12.7833 6.60515 13 5.72446 13.4333 4.6236C13.8667 3.74292 14.0833 3.0824 14.7333 2.42189C15.3833 1.76137 16.0333 1.10086 16.9 0.660515C17.7667 0.220172 18.6333 0 19.5 0C19.5 0.880686 19.2833 1.76137 19.0667 2.86223C18.85 3.74292 18.2 4.40343 17.7667 5.06395C17.1167 5.94463 16.4667 6.38497 15.6 6.82532Z" fill="white"/>
</svg>
