<svg width="60" height="60" viewBox="0 0 60 60" fill="none" xmlns="http://www.w3.org/2000/svg">
<circle cx="30" cy="30" r="30" fill="#EEEEEE"/>
<path d="M33.5225 29.0032H32.6222V21.8006C32.6222 20.8103 31.8119 20 30.8215 20H29.0209C28.0306 20 27.2203 20.8103 27.2203 21.8006V29.0032H26.32C23.8351 29.0032 21.8184 31.0199 21.8184 33.5048V39.807H38.0241V33.5048C38.0241 31.0199 36.0074 29.0032 33.5225 29.0032ZM36.2235 38.0064H34.4228V35.3054C34.4228 34.8102 34.0177 34.4051 33.5225 34.4051C33.0273 34.4051 32.6222 34.8102 32.6222 35.3054V38.0064H30.8215V35.3054C30.8215 34.8102 30.4164 34.4051 29.9212 34.4051C29.4261 34.4051 29.0209 34.8102 29.0209 35.3054V38.0064H27.2203V35.3054C27.2203 34.8102 26.8151 34.4051 26.32 34.4051C25.8248 34.4051 25.4196 34.8102 25.4196 35.3054V38.0064H23.619V33.5048C23.619 32.0193 24.8344 30.8038 26.32 30.8038H33.5225C35.008 30.8038 36.2235 32.0193 36.2235 33.5048V38.0064Z" fill="#7210FF"/>
</svg>
