<svg width="20" height="24" viewBox="0 0 20 24" fill="none" xmlns="http://www.w3.org/2000/svg">
<mask id="path-1-inside-1_614_128" fill="white">
<path d="M16.8332 0H2.94225C1.41425 0 0.164062 1.25019 0.164062 2.77819V21.9706C0.164062 23.4065 1.63216 24.3745 2.9519 23.8089L9.09989 21.1741C9.60299 20.9585 10.1725 20.9585 10.6756 21.1741L16.8236 23.8089C18.1433 24.3745 19.6114 23.4065 19.6114 21.9706V2.77819C19.6114 1.25019 18.3612 0 16.8332 0Z"/>
</mask>
<path d="M16.8236 23.8089L16.2327 25.1876L16.8236 23.8089ZM9.09989 21.1741L9.69077 22.5528L9.09989 21.1741ZM10.6756 21.1741L11.2664 19.7954L10.6756 21.1741ZM2.9519 23.8089L2.36102 22.4302L2.9519 23.8089ZM16.8332 -1.5H2.94225V1.5H16.8332V-1.5ZM2.94225 -1.5C0.585821 -1.5 -1.33594 0.421759 -1.33594 2.77819H1.66406C1.66406 2.07861 2.24268 1.5 2.94225 1.5V-1.5ZM-1.33594 2.77819V21.9706H1.66406V2.77819H-1.33594ZM3.54278 25.1876L9.69077 22.5528L8.50901 19.7954L2.36102 22.4302L3.54278 25.1876ZM10.0847 22.5528L16.2327 25.1876L17.4144 22.4302L11.2664 19.7954L10.0847 22.5528ZM21.1114 21.9706V2.77819H18.1114V21.9706H21.1114ZM21.1114 2.77819C21.1114 0.421758 19.1896 -1.5 16.8332 -1.5V1.5C17.5328 1.5 18.1114 2.07861 18.1114 2.77819H21.1114ZM16.2327 25.1876C18.5422 26.1775 21.1114 24.4833 21.1114 21.9706H18.1114C18.1114 22.3296 17.7444 22.5716 17.4144 22.4302L16.2327 25.1876ZM9.69077 22.5528C9.81654 22.4989 9.95891 22.4989 10.0847 22.5528L11.2664 19.7954C10.386 19.418 9.38943 19.418 8.50901 19.7954L9.69077 22.5528ZM-1.33594 21.9706C-1.33594 24.4833 1.23324 26.1774 3.54278 25.1876L2.36102 22.4302C2.03109 22.5716 1.66406 22.3296 1.66406 21.9706H-1.33594Z" fill="#181A20" mask="url(#path-1-inside-1_614_128)"/>
</svg>
