<svg width="18" height="18" viewBox="0 0 18 18" fill="none" xmlns="http://www.w3.org/2000/svg">
<path fill-rule="evenodd" clip-rule="evenodd" d="M2 0C0.895431 0 0 0.89543 0 2V16C0 17.1046 0.89543 18 2 18H16C17.1046 18 18 17.1046 18 16V2C18 0.895431 17.1046 0 16 0H2ZM4.43359 4.5C4.15745 4.5 3.93359 4.72386 3.93359 5C3.93359 5.27614 4.15745 5.5 4.43359 5.5H8.43359C8.70974 5.5 8.93359 5.27614 8.93359 5C8.93359 4.72386 8.70974 4.5 8.43359 4.5H4.43359ZM4.43359 8.5C4.15745 8.5 3.93359 8.72386 3.93359 9C3.93359 9.27614 4.15745 9.5 4.43359 9.5H12.9336C13.2097 9.5 13.4336 9.27614 13.4336 9C13.4336 8.72386 13.2097 8.5 12.9336 8.5H4.43359ZM4.43359 13C4.15745 13 3.93359 13.2239 3.93359 13.5C3.93359 13.7761 4.15745 14 4.43359 14H12.9336C13.2097 14 13.4336 13.7761 13.4336 13.5C13.4336 13.2239 13.2097 13 12.9336 13H4.43359Z" fill="url(#paint0_linear_518_115)"/>
<defs>
<linearGradient id="paint0_linear_518_115" x1="-0.00469826" y1="8.99819" x2="18.0037" y2="8.99819" gradientUnits="userSpaceOnUse">
<stop stop-color="#8948E7"/>
<stop offset="1" stop-color="#7210FF"/>
</linearGradient>
</defs>
</svg>
