<svg width="21" height="21" viewBox="0 0 21 21" fill="none" xmlns="http://www.w3.org/2000/svg">
<path fill-rule="evenodd" clip-rule="evenodd" d="M21 10.4961C21 16.2929 16.2989 20.9922 10.5 20.9922C8.58753 20.9922 6.79441 20.481 5.25 19.588L0.525 20.4674L1.40471 15.7441C0.511319 14.2003 0 12.4079 0 10.4961C0 4.69926 4.70101 0 10.5 0C16.2989 0 21 4.69926 21 10.4961ZM17.2159 10.6313C17.2159 11.4698 16.5357 12.1498 15.6968 12.1498C14.858 12.1498 14.1777 11.4698 14.1777 10.6313C14.1777 9.79277 14.858 9.11277 15.6968 9.11277C16.5357 9.11277 17.2159 9.79277 17.2159 10.6313ZM10.6343 12.1498C11.4732 12.1498 12.1534 11.4698 12.1534 10.6313C12.1534 9.79277 11.4732 9.11277 10.6343 9.11277C9.79549 9.11277 9.11523 9.79277 9.11523 10.6313C9.11523 11.4698 9.79549 12.1498 10.6343 12.1498ZM7.08899 10.6313C7.08899 11.4698 6.40886 12.1498 5.56989 12.1498C4.73092 12.1498 4.05078 11.4698 4.05078 10.6313C4.05078 9.79277 4.73092 9.11277 5.56989 9.11277C6.40886 9.11277 7.08899 9.79277 7.08899 10.6313Z" fill="url(#paint0_linear_524_2373)"/>
<defs>
<linearGradient id="paint0_linear_524_2373" x1="-0.00548131" y1="10.494" x2="21.0043" y2="10.494" gradientUnits="userSpaceOnUse">
<stop stop-color="#8948E7"/>
<stop offset="1" stop-color="#7210FF"/>
</linearGradient>
</defs>
</svg>
