<svg width="60" height="60" viewBox="0 0 60 60" fill="none" xmlns="http://www.w3.org/2000/svg">
<circle cx="30" cy="30" r="30" fill="#EEEEEE"/>
<path d="M33.886 28.9123H32.8947V20.9825C32.8947 19.8921 32.0026 19 30.9123 19H28.9298C27.8395 19 26.9474 19.8921 26.9474 20.9825V28.9123H25.9561C23.2204 28.9123 21 31.1326 21 33.8684V40.807H38.8421V33.8684C38.8421 31.1326 36.6218 28.9123 33.886 28.9123ZM36.8596 38.8246H34.8772V35.8509C34.8772 35.3057 34.4311 34.8596 33.886 34.8596C33.3408 34.8596 32.8947 35.3057 32.8947 35.8509V38.8246H30.9123V35.8509C30.9123 35.3057 30.4662 34.8596 29.9211 34.8596C29.3759 34.8596 28.9298 35.3057 28.9298 35.8509V38.8246H26.9474V35.8509C26.9474 35.3057 26.5013 34.8596 25.9561 34.8596C25.411 34.8596 24.9649 35.3057 24.9649 35.8509V38.8246H22.9825V33.8684C22.9825 32.2329 24.3206 30.8947 25.9561 30.8947H33.886C35.5215 30.8947 36.8596 32.2329 36.8596 33.8684V38.8246Z" fill="#7210FF"/>
</svg>
