<svg width="18" height="20" viewBox="0 0 18 20" fill="none" xmlns="http://www.w3.org/2000/svg">
<path d="M6 9H4V11H6V9ZM10 9H8V11H10V9ZM14 9H12V11H14V9ZM16 2H15V0H13V2H5V0H3V2H2C0.89 2 0.00999999 2.9 0.00999999 4L0 18C0 19.1 0.89 20 2 20H16C17.1 20 18 19.1 18 18V4C18 2.9 17.1 2 16 2ZM16 18H2V7H16V18Z" fill="url(#paint0_linear_520_2040)"/>
<rect x="12" y="12.752" width="2" height="2" fill="url(#paint1_linear_520_2040)"/>
<rect x="4.00098" y="12.752" width="2" height="2" fill="url(#paint2_linear_520_2040)"/>
<rect x="8" y="12.752" width="2" height="2" fill="url(#paint3_linear_520_2040)"/>
<defs>
<linearGradient id="paint0_linear_520_2040" x1="-0.00469826" y1="9.99799" x2="18.0037" y2="9.99799" gradientUnits="userSpaceOnUse">
<stop stop-color="#8948E7"/>
<stop offset="1" stop-color="#7210FF"/>
</linearGradient>
<linearGradient id="paint1_linear_520_2040" x1="11.9995" y1="13.7518" x2="14.0004" y2="13.7518" gradientUnits="userSpaceOnUse">
<stop stop-color="#8948E7"/>
<stop offset="1" stop-color="#7210FF"/>
</linearGradient>
<linearGradient id="paint2_linear_520_2040" x1="4.00045" y1="13.7518" x2="6.00138" y2="13.7518" gradientUnits="userSpaceOnUse">
<stop stop-color="#8948E7"/>
<stop offset="1" stop-color="#7210FF"/>
</linearGradient>
<linearGradient id="paint3_linear_520_2040" x1="7.99948" y1="13.7518" x2="10.0004" y2="13.7518" gradientUnits="userSpaceOnUse">
<stop stop-color="#8948E7"/>
<stop offset="1" stop-color="#7210FF"/>
</linearGradient>
</defs>
</svg>
