<svg width="23" height="23" viewBox="0 0 23 23" fill="none" xmlns="http://www.w3.org/2000/svg">
<path d="M16.5516 11.8864C16.8379 11.8864 17.07 11.6543 17.07 11.368C17.07 11.0817 16.8379 10.8496 16.5516 10.8496C16.2653 10.8496 16.0332 11.0817 16.0332 11.368C16.0332 11.6543 16.2653 11.8864 16.5516 11.8864Z" fill="#9E9E9E" stroke="#9E9E9E" stroke-linecap="round" stroke-linejoin="round"/>
<path d="M11.3678 11.8864C11.654 11.8864 11.8862 11.6543 11.8862 11.368C11.8862 11.0817 11.654 10.8496 11.3678 10.8496C11.0815 10.8496 10.8494 11.0817 10.8494 11.368C10.8494 11.6543 11.0815 11.8864 11.3678 11.8864Z" fill="#9E9E9E" stroke="#9E9E9E" stroke-linecap="round" stroke-linejoin="round"/>
<path d="M6.18392 11.8864C6.47022 11.8864 6.70232 11.6543 6.70232 11.368C6.70232 11.0817 6.47022 10.8496 6.18392 10.8496C5.89762 10.8496 5.66553 11.0817 5.66553 11.368C5.66553 11.6543 5.89762 11.8864 6.18392 11.8864Z" fill="#9E9E9E" stroke="#9E9E9E" stroke-linecap="round" stroke-linejoin="round"/>
<path d="M11.3679 21.7359C17.0939 21.7359 21.7359 17.0939 21.7359 11.3679C21.7359 5.64188 17.0939 1 11.3679 1C5.64188 1 1 5.64188 1 11.3679C1 13.2564 1.50489 15.0269 2.38704 16.5519L1.5184 21.2175L6.18397 20.3489C7.70896 21.231 9.47952 21.7359 11.3679 21.7359Z" stroke="#9E9E9E" stroke-linecap="round" stroke-linejoin="round"/>
</svg>
