<svg width="14" height="12" viewBox="0 0 14 12" fill="none" xmlns="http://www.w3.org/2000/svg">
<path d="M0 1.40007C0 1.02875 0.147507 0.672635 0.410071 0.410071C0.672635 0.147507 1.02875 0 1.40007 0H4.90025C5.08589 3.96482e-05 5.26392 0.0738193 5.39517 0.20511L6.59013 1.40007H12.6006C12.972 1.40007 13.3281 1.54758 13.5906 1.81014C13.8532 2.07271 14.0007 2.42882 14.0007 2.80014V9.80049C14.0007 10.1718 13.8532 10.5279 13.5906 10.7905C13.3281 11.0531 12.972 11.2006 12.6006 11.2006H1.40007C1.02875 11.2006 0.672635 11.0531 0.410071 10.7905C0.147507 10.5279 0 10.1718 0 9.80049V1.40007ZM4.61043 1.40007H1.40007V9.80049H12.6006V2.80014H6.30032C6.11467 2.8001 5.93664 2.72632 5.80539 2.59503L4.61043 1.40007ZM7.00035 3.85019C7.18601 3.85019 7.36407 3.92395 7.49535 4.05523C7.62663 4.18651 7.70039 4.36457 7.70039 4.55023V6.36052L7.9055 6.15541C8.03753 6.02789 8.21436 5.95733 8.3979 5.95893C8.58145 5.96052 8.75703 6.03414 8.88682 6.16394C9.01661 6.29373 9.09023 6.46931 9.09183 6.65285C9.09342 6.8364 9.02286 7.01323 8.89535 7.14526L7.49528 8.54533C7.364 8.67657 7.18598 8.75029 7.00035 8.75029C6.81473 8.75029 6.6367 8.67657 6.50543 8.54533L5.10536 7.14526C5.0385 7.08068 4.98517 7.00344 4.94848 6.91803C4.91179 6.83262 4.89248 6.74076 4.89167 6.64781C4.89086 6.55486 4.90858 6.46268 4.94377 6.37665C4.97897 6.29062 5.03095 6.21246 5.09668 6.14673C5.16241 6.081 5.24057 6.02902 5.3266 5.99383C5.41263 5.95863 5.50481 5.94091 5.59776 5.94172C5.69071 5.94253 5.78257 5.96184 5.86798 5.99853C5.95338 6.03522 6.03063 6.08855 6.09521 6.15541L6.30032 6.36052V4.55023C6.30032 4.36457 6.37407 4.18651 6.50535 4.05523C6.63663 3.92395 6.81469 3.85019 7.00035 3.85019Z" fill="#262626"/>
</svg>
