<svg width="32" height="32" viewBox="0 0 32 32" fill="none" xmlns="http://www.w3.org/2000/svg">
<path d="M30.08 16.334C30.08 15.294 29.9867 14.294 29.8133 13.334H16V19.0073H23.8933C23.5533 20.8407 22.52 22.394 20.9667 23.434V27.114H25.7067C28.48 24.5606 30.08 20.8007 30.08 16.334Z" fill="#4285F4"/>
<path d="M16.0002 30.6671C19.9602 30.6671 23.2802 29.3538 25.7069 27.1138L20.9669 23.4338C19.6536 24.3138 17.9736 24.8338 16.0002 24.8338C12.1802 24.8338 8.94689 22.2538 7.79355 18.7871H2.89355V22.5871C5.30689 27.3804 10.2669 30.6671 16.0002 30.6671Z" fill="#34A853"/>
<path d="M7.7935 18.7874C7.50016 17.9074 7.3335 16.9674 7.3335 16.0007C7.3335 15.0341 7.50016 14.0941 7.7935 13.2141V9.41406H2.8935C1.86683 11.4579 1.33259 13.7135 1.3335 16.0007C1.3335 18.3674 1.90016 20.6074 2.8935 22.5874L7.7935 18.7874Z" fill="#FBBC05"/>
<path d="M16.0002 7.16732C18.1536 7.16732 20.0869 7.90732 21.6069 9.36065L25.8136 5.15398C23.2736 2.78732 19.9536 1.33398 16.0002 1.33398C10.2669 1.33398 5.30689 4.62065 2.89355 9.41398L7.79355 13.214C8.94689 9.74732 12.1802 7.16732 16.0002 7.16732Z" fill="#EA4335"/>
</svg>
