<svg width="24" height="22" viewBox="0 0 24 22" fill="none" xmlns="http://www.w3.org/2000/svg">
<path d="M24 7.03466C24 8.89044 23.2874 10.6729 22.015 11.9915C19.0859 15.0276 16.2449 18.1936 13.2064 21.1196C12.5099 21.7806 11.405 21.7565 10.7386 21.0656L1.98451 11.9915C-0.661503 9.24864 -0.661503 4.82068 1.98451 2.07788C4.65653 -0.69186 9.00953 -0.69186 11.6815 2.07788L11.9998 2.4077L12.3178 2.07808C13.5989 0.7494 15.3437 0 17.1664 0C18.989 0 20.7337 0.749328 22.015 2.07788C23.2876 3.39654 24 5.17892 24 7.03466Z" fill="url(#paint0_linear_614_9284)"/>
<path d="M17.1038 3.58398C18.3602 3.64382 20.8732 4.48147 20.8732 7.35343" stroke="white" stroke-width="3" stroke-linecap="round"/>
<defs>
<linearGradient id="paint0_linear_614_9284" x1="21.7708" y1="15.2524" x2="1.8466" y2="4.30303" gradientUnits="userSpaceOnUse">
<stop stop-color="#FF5A72"/>
<stop offset="1" stop-color="#FF8496"/>
</linearGradient>
</defs>
</svg>
