<svg width="19" height="19" viewBox="0 0 19 19" fill="none" xmlns="http://www.w3.org/2000/svg">
<path fill-rule="evenodd" clip-rule="evenodd" d="M12 18.0309H14.5724C16.8718 18.0309 18.7359 16.1668 18.7359 13.8674V7.31773C18.7359 5.86182 17.9754 4.51167 16.7303 3.75707L11.5259 0.602889C10.1995 -0.200963 8.53638 -0.200963 7.20997 0.602889L2.00556 3.75707C0.760479 4.51167 0 5.86182 0 7.31773V13.8674C0 16.1668 1.86407 18.0309 4.16353 18.0309H6V13.9985C6 12.894 6.89543 11.9985 8 11.9985H10C11.1046 11.9985 12 12.894 12 13.9985V18.0309Z" fill="url(#paint0_linear_614_267)"/>
<defs>
<linearGradient id="paint0_linear_614_267" x1="-0.00489034" y1="9.01364" x2="18.7397" y2="9.01364" gradientUnits="userSpaceOnUse">
<stop stop-color="#8948E7"/>
<stop offset="1" stop-color="#7210FF"/>
</linearGradient>
</defs>
</svg>
