<svg width="21" height="20" viewBox="0 0 21 20" fill="none" xmlns="http://www.w3.org/2000/svg">
<path d="M13 19.0309H12.5C12.5 19.3071 12.7239 19.5309 13 19.5309V19.0309ZM17.7303 4.75707L17.4712 5.18467L17.4712 5.18467L17.7303 4.75707ZM12.5259 1.60289L12.785 1.17529L12.785 1.17529L12.5259 1.60289ZM8.20997 1.60289L7.95083 1.17529L7.95082 1.17529L8.20997 1.60289ZM3.00556 4.75707L2.74641 4.32948L2.74641 4.32948L3.00556 4.75707ZM7 19.0309V19.5309C7.27614 19.5309 7.5 19.3071 7.5 19.0309H7ZM15.5724 18.5309H13V19.5309H15.5724V18.5309ZM19.2359 14.8674C19.2359 16.8907 17.5956 18.5309 15.5724 18.5309V19.5309C18.1479 19.5309 20.2359 17.4429 20.2359 14.8674H19.2359ZM19.2359 8.31773V14.8674H20.2359V8.31773H19.2359ZM17.4712 5.18467C18.5667 5.84865 19.2359 7.03666 19.2359 8.31773H20.2359C20.2359 6.68698 19.3841 5.17469 17.9895 4.32947L17.4712 5.18467ZM12.2667 2.03049L17.4712 5.18467L17.9895 4.32948L12.785 1.17529L12.2667 2.03049ZM8.46912 2.03049C9.63625 1.32317 11.0996 1.32317 12.2668 2.03049L12.785 1.17529C11.2994 0.274904 9.43651 0.274905 7.95083 1.17529L8.46912 2.03049ZM3.26471 5.18467L8.46912 2.03049L7.95082 1.17529L2.74641 4.32948L3.26471 5.18467ZM1.5 8.31773C1.5 7.03666 2.16915 5.84865 3.26471 5.18467L2.74641 4.32948C1.3518 5.17469 0.5 6.68698 0.5 8.31773H1.5ZM1.5 14.8674V8.31773H0.5V14.8674H1.5ZM5.16353 18.5309C3.14022 18.5309 1.5 16.8907 1.5 14.8674H0.5C0.5 17.4429 2.58793 19.5309 5.16353 19.5309V18.5309ZM7 18.5309H5.16353V19.5309H7V18.5309ZM7.5 19.0309V14.9973H6.5V19.0309H7.5ZM7.5 14.9973C7.5 14.1689 8.17157 13.4973 9 13.4973V12.4973C7.61929 12.4973 6.5 13.6166 6.5 14.9973H7.5ZM9 13.4973H11V12.4973H9V13.4973ZM11 13.4973C11.8284 13.4973 12.5 14.1689 12.5 14.9973H13.5C13.5 13.6166 12.3807 12.4973 11 12.4973V13.4973ZM12.5 14.9973V19.0309H13.5V14.9973H12.5Z" fill="#9E9E9E"/>
</svg>
