<svg width="60" height="60" viewBox="0 0 60 60" fill="none" xmlns="http://www.w3.org/2000/svg">
<circle cx="30" cy="30" r="30" fill="#EEEEEE"/>
<path d="M26.4931 34.83C28.1506 36.39 30.8494 36.39 32.5069 34.83C34.1644 33.27 34.1644 30.73 32.5069 29.17L26.4931 34.83ZM35.875 20.01L23.125 20C21.9456 20 21 20.89 21 22V38C21 39.11 21.9456 40 23.125 40H35.875C37.0544 40 38 39.11 38 38V22C38 20.89 37.0544 20.01 35.875 20.01ZM27.375 22C27.9594 22 28.4375 22.45 28.4375 23C28.4375 23.55 27.9594 24 27.375 24C26.7906 24 26.3125 23.55 26.3125 23C26.3125 22.45 26.7906 22 27.375 22ZM24.1875 22C24.7719 22 25.25 22.45 25.25 23C25.25 23.55 24.7719 24 24.1875 24C23.6031 24 23.125 23.55 23.125 23C23.125 22.45 23.6031 22 24.1875 22ZM29.5 38C25.9831 38 23.125 35.31 23.125 32C23.125 28.69 25.9831 26 29.5 26C33.0169 26 35.875 28.69 35.875 32C35.875 35.31 33.0169 38 29.5 38Z" fill="#7210FF"/>
</svg>
