<svg width="122" height="200" viewBox="0 0 122 200" fill="none" xmlns="http://www.w3.org/2000/svg">
<g clip-path="url(#clip0_581_8)">
<path d="M0 0V113.965C0 134.599 16.6071 151.287 37.0313 151.287C37.0313 151.287 69.4027 150.887 74.2609 134.649C74.2609 134.649 70.7907 139.246 55.9187 139.246C55.9187 139.246 43.922 139.445 41.8895 128.604C41.6912 127.604 41.6416 126.655 41.6416 125.656V29.0282C41.6912 12.9903 28.8021 0 12.8891 0H0Z" fill="white"/>
<path d="M122 200V86.0355C122 65.401 105.393 48.7135 84.9686 48.7135C84.9686 48.7135 52.5972 49.1132 47.739 65.351C47.739 65.351 51.2091 60.7545 66.0812 60.7545C66.0812 60.7545 78.0779 60.5546 80.1104 71.3965C80.3087 72.3957 80.3583 73.345 80.3583 74.3443V170.972C80.3583 187.01 93.2473 200 109.16 200H122Z" fill="white"/>
</g>
<defs>
<clipPath id="clip0_581_8">
<rect width="122" height="200" fill="white"/>
</clipPath>
</defs>
</svg>
