<svg width="19" height="24" viewBox="0 0 19 24" fill="none" xmlns="http://www.w3.org/2000/svg">
<path fill-rule="evenodd" clip-rule="evenodd" d="M10.7468 22.7556C13.3474 19.9882 18.7831 13.7187 18.7831 9.65987C18.7831 4.32487 14.5784 0 9.39154 0C4.20474 0 0 4.32487 0 9.65987C0 13.7187 5.43563 19.9882 8.0363 22.7556C8.77911 23.546 10.004 23.546 10.7468 22.7556ZM12.4261 9.35803C12.4261 11.0187 11.0798 12.365 9.4191 12.365C7.75839 12.365 6.41208 11.0187 6.41208 9.35803C6.41208 7.69731 7.75839 6.35101 9.4191 6.35101C11.0798 6.35101 12.4261 7.69731 12.4261 9.35803Z" fill="black"/>
</svg>
