<svg width="44" height="28" viewBox="0 0 44 28" fill="none" xmlns="http://www.w3.org/2000/svg">
<path d="M27.9495 2.90625H16.0518V24.2805H27.9495V2.90625Z" fill="#FF5F00"/>
<path d="M16.8069 13.5934C16.805 11.5349 17.2716 9.50298 18.1714 7.65141C19.0712 5.79984 20.3805 4.17718 22.0003 2.90628C19.9944 1.33006 17.5854 0.349834 15.0486 0.0776358C12.5117 -0.194562 9.9495 0.252242 7.65468 1.367C5.35987 2.48176 3.42508 4.21949 2.07146 6.38155C0.717836 8.54362 0 11.0428 0 13.5934C0 16.1441 0.717836 18.6432 2.07146 20.8053C3.42508 22.9674 5.35987 24.7051 7.65468 25.8198C9.9495 26.9346 12.5117 27.3814 15.0486 27.1092C17.5854 26.837 19.9944 25.8568 22.0003 24.2806C20.3805 23.0097 19.0712 21.387 18.1714 19.5354C17.2716 17.6839 16.805 15.6519 16.8069 13.5934Z" fill="#EB001B"/>
<path d="M43.9997 13.5934C43.9998 16.144 43.282 18.6432 41.9285 20.8053C40.5749 22.9673 38.6402 24.7051 36.3454 25.8198C34.0506 26.9346 31.4884 27.3814 28.9516 27.1092C26.4149 26.837 24.0059 25.8568 22 24.2806C23.6184 23.0084 24.9267 21.3855 25.8263 19.5342C26.726 17.6829 27.1934 15.6516 27.1934 13.5934C27.1934 11.5353 26.726 9.50395 25.8263 7.65267C24.9267 5.80139 23.6184 4.17848 22 2.90629C24.0059 1.33007 26.4149 0.349828 28.9516 0.0776325C31.4884 -0.194563 34.0506 0.252261 36.3454 1.36703C38.6402 2.4818 40.5749 4.21954 41.9285 6.38161C43.282 8.54368 43.9998 11.0428 43.9997 13.5934Z" fill="#F79E1B"/>
<path d="M42.7027 22.0179V21.5803H42.8792V21.4911H42.4297V21.5803H42.6063V22.0179H42.7027ZM43.5754 22.0179V21.4902H43.4376L43.2791 21.8531L43.1206 21.4902H42.9827V22.0179H43.08V21.6199L43.2287 21.963H43.3295L43.4782 21.619V22.0179H43.5754Z" fill="#F79E1B"/>
</svg>
