<svg width="28" height="27" viewBox="0 0 28 27" fill="none" xmlns="http://www.w3.org/2000/svg">
<path fill-rule="evenodd" clip-rule="evenodd" d="M27.5788 13.5C27.5788 20.9558 21.5665 27 14.1499 27C11.1819 27 8.43875 26.032 6.21584 24.393L6.19219 24.5L1.21851 25.5L2.69557 20.5504C1.44309 18.4984 0.720947 16.084 0.720947 13.5C0.720947 6.04416 6.73329 0 14.1499 0C21.5665 0 27.5788 6.04416 27.5788 13.5ZM7.18693 15C8.011 15 8.67903 14.3284 8.67903 13.5C8.67903 12.6716 8.011 12 7.18693 12C6.36286 12 5.69482 12.6716 5.69482 13.5C5.69482 14.3284 6.36286 15 7.18693 15ZM15.6422 13.5C15.6422 14.3284 14.9741 15 14.1501 15C13.326 15 12.658 14.3284 12.658 13.5C12.658 12.6716 13.326 12 14.1501 12C14.9741 12 15.6422 12.6716 15.6422 13.5ZM21.1132 15C21.9373 15 22.6053 14.3284 22.6053 13.5C22.6053 12.6716 21.9373 12 21.1132 12C20.2891 12 19.6211 12.6716 19.6211 13.5C19.6211 14.3284 20.2891 15 21.1132 15Z" fill="url(#paint0_linear_586_645)"/>
<defs>
<linearGradient id="paint0_linear_586_645" x1="0.713937" y1="13.4973" x2="27.5843" y2="13.4973" gradientUnits="userSpaceOnUse">
<stop stop-color="#8948E7"/>
<stop offset="1" stop-color="#7210FF"/>
</linearGradient>
</defs>
</svg>
