<svg width="60" height="60" viewBox="0 0 60 60" fill="none" xmlns="http://www.w3.org/2000/svg">
<circle cx="30" cy="30" r="30" fill="#EEEEEE"/>
<path fill-rule="evenodd" clip-rule="evenodd" d="M30 42C36.6274 42 42 36.6274 42 30C42 23.3726 36.6274 18 30 18C23.3726 18 18 23.3726 18 30C18 36.6274 23.3726 42 30 42ZM22 30C22 28.9 22.9 28 24 28C25.1 28 26 28.9 26 30C26 31.1 25.1 32 24 32C22.9 32 22 31.1 22 30ZM34 30C34 28.9 34.9 28 36 28C37.1 28 38 28.9 38 30C38 31.1 37.1 32 36 32C34.9 32 34 31.1 34 30ZM28 30C28 28.9 28.9 28 30 28C31.1 28 32 28.9 32 30C32 31.1 31.1 32 30 32C28.9 32 28 31.1 28 30Z" fill="url(#paint0_linear_20_337)"/>
<defs>
<linearGradient id="paint0_linear_20_337" x1="17.9937" y1="29.9976" x2="42.0049" y2="29.9976" gradientUnits="userSpaceOnUse">
<stop stop-color="#8948E7"/>
<stop offset="1" stop-color="#7210FF"/>
</linearGradient>
</defs>
</svg>
