<svg width="18" height="24" viewBox="0 0 18 24" fill="none" xmlns="http://www.w3.org/2000/svg">
<path d="M9 14.5266C11.1343 14.5266 12.8443 12.7131 12.8443 10.4665L12.8571 4.06004C12.8571 1.81348 11.1343 0 9 0C6.86571 0 5.14286 1.81348 5.14286 4.06004V10.4665C5.14286 12.7131 6.86571 14.5266 9 14.5266ZM16.9071 10.4665C16.3036 10.4665 15.8235 10.9588 15.7336 11.5557C15.2106 15.0258 12.2219 17.3686 9 17.3686C5.77812 17.3686 2.78942 15.0258 2.26642 11.5556C2.17647 10.9588 1.69643 10.4665 1.09286 10.4665C0.489289 10.4665 -0.00688126 10.9581 0.0656873 11.5573C0.563994 15.6717 3.83442 18.9509 7.71429 19.561V22.7143C7.71429 23.4244 8.28992 24 9 24C9.71008 24 10.2857 23.4244 10.2857 22.7143V19.561C14.1665 18.9632 17.4376 15.6836 17.9347 11.5573C18.0069 10.9581 17.5107 10.4665 16.9071 10.4665Z" fill="white"/>
</svg>
