<svg width="25" height="26" viewBox="0 0 25 26" fill="none" xmlns="http://www.w3.org/2000/svg">
<path d="M19.1635 11.8019C19.8619 18.2536 22.6037 20.2033 22.6037 20.2033H1C1 20.2033 4.60062 17.6429 4.60062 8.68133C4.60062 6.64411 5.35932 4.69034 6.70982 3.24981C8.06031 1.80928 9.89198 1 11.8019 1C12.2067 1 12.608 1.03637 13.0021 1.10741" stroke="#181A20" stroke-width="1.5" stroke-linecap="round" stroke-linejoin="round"/>
<path d="M20.2032 8.20124C22.1918 8.20124 23.8038 6.58918 23.8038 4.60062C23.8038 2.61206 22.1918 1 20.2032 1C18.2145 1 16.6025 2.61206 16.6025 4.60062C16.6025 6.58918 18.2145 8.20124 20.2032 8.20124Z" stroke="#181A20" stroke-width="1.5" stroke-linecap="round" stroke-linejoin="round"/>
<path d="M13.8783 23.8037C13.6673 24.1675 13.3645 24.4695 13 24.6793C12.6356 24.8892 12.2225 24.9997 11.8019 24.9997C11.3814 24.9997 10.9683 24.8892 10.6039 24.6793C10.2395 24.4695 9.93658 24.1675 9.72559 23.8037" stroke="#181A20" stroke-width="1.5" stroke-linecap="round" stroke-linejoin="round"/>
</svg>
