<!DOCTYPE svg PUBLIC "-//W3C//DTD SVG 1.1//EN" "http://www.w3.org/Graphics/SVG/1.1/DTD/svg11.dtd">

<!-- Uploaded to: SVG Repo, www.svgrepo.com, Transformed by: SVG Repo Mixer Tools -->
<svg fill="none" height="800px" stroke="#404040" transform="rotate(0)"
    viewBox="-2.4 -2.4 28.80 28.80" width="800px" xmlns="http://www.w3.org/2000/svg">

    <g id="SVGRepo_bgCarrier" stroke-width="0"
        transform="translate(3.6000000000000014,3.6000000000000014), scale(0.7)">

        <rect fill="#e6e6e6" height="28.80" rx="14.4" strokewidth="0" width="28.80" x="-2.4"
            y="-2.4" />

    </g>

    <g id="SVGRepo_tracerCarrier" stroke="#CCCCCC" stroke-linecap="round" stroke-linejoin="round"
        stroke-width="0.336" />

    <g id="SVGRepo_iconCarrier">
        <path
            d="M12.12 12.78C12.05 12.77 11.96 12.77 11.88 12.78C10.12 12.72 8.71997 11.28 8.71997 9.50998C8.71997 7.69998 10.18 6.22998 12 6.22998C13.81 6.22998 15.28 7.69998 15.28 9.50998C15.27 11.28 13.88 12.72 12.12 12.78Z"
            stroke="#454545" stroke-linecap="round" stroke-linejoin="round"
            stroke-width="0.4800000000000001" />
        <path
            d="M18.74 19.3801C16.96 21.0101 14.6 22.0001 12 22.0001C9.40001 22.0001 7.04001 21.0101 5.26001 19.3801C5.36001 18.4401 5.96001 17.5201 7.03001 16.8001C9.77001 14.9801 14.25 14.9801 16.97 16.8001C18.04 17.5201 18.64 18.4401 18.74 19.3801Z"
            stroke="#454545" stroke-linecap="round" stroke-linejoin="round"
            stroke-width="0.4800000000000001" />
        <path
            d="M12 22C17.5228 22 22 17.5228 22 12C22 6.47715 17.5228 2 12 2C6.47715 2 2 6.47715 2 12C2 17.5228 6.47715 22 12 22Z"
            stroke="#454545" stroke-linecap="round" stroke-linejoin="round"
            stroke-width="0.4800000000000001" />
    </g>

</svg>