<svg width="21" height="21" viewBox="0 0 21 21" fill="none" xmlns="http://www.w3.org/2000/svg">
<path d="M10.3679 1C5.19417 1 1 5.19417 1 10.3679C1 15.5417 5.19417 19.7359 10.3679 19.7359C15.5417 19.7359 19.7359 15.5417 19.7359 10.3679C19.7359 5.19417 15.5417 1 10.3679 1Z" stroke="#9E9E9E" stroke-linecap="round" stroke-linejoin="round"/>
<path d="M3.12769 16.3133C3.12769 16.3133 5.21582 13.6475 10.3682 13.6475C15.5205 13.6475 17.6087 16.3133 17.6087 16.3133" stroke="#9E9E9E" stroke-linecap="round" stroke-linejoin="round"/>
<path d="M10.3678 10.3688C11.9199 10.3688 13.1781 9.1106 13.1781 7.55843C13.1781 6.0063 11.9199 4.74805 10.3678 4.74805C8.81558 4.74805 7.55737 6.0063 7.55737 7.55843C7.55737 9.1106 8.81558 10.3688 10.3678 10.3688Z" stroke="#9E9E9E" stroke-linecap="round" stroke-linejoin="round"/>
</svg>
