<svg width="60" height="60" viewBox="0 0 60 60" fill="none" xmlns="http://www.w3.org/2000/svg">
<circle cx="30" cy="30" r="30" fill="#EEEEEE"/>
<path d="M37.2996 22.6813L35.1982 20.5799C34.4251 19.8067 33.1662 19.8067 32.3931 20.5799L29.5879 23.385L31.6893 25.4864L33.7907 23.385L37.2996 26.894C38.4594 25.7243 38.4594 23.841 37.2996 22.6813Z" fill="#7210FF"/>
<path d="M23.63 31.4444C24.2148 32.0292 25.1565 32.0292 25.7314 31.4444L28.1798 28.9961L26.0784 26.8848L23.63 29.3331C23.0452 29.9179 23.0452 30.8596 23.63 31.4444Z" fill="#7210FF"/>
<path d="M33.0968 25.4868L32.393 26.1906L31.6893 26.8943L28.5371 23.7422C27.9523 23.1475 27.0107 23.1475 26.4357 23.7323C25.8509 24.3171 25.8509 25.2588 26.4357 25.8337L29.5879 28.9858L28.8841 29.6896L22.5799 35.9938C21.8067 36.767 21.8067 38.0258 22.5799 38.799C23.353 39.5721 24.6119 39.5721 25.385 38.799L34.4944 29.6896C34.881 30.0762 35.5055 30.0762 35.8921 29.6896C36.2786 29.303 36.2786 28.6785 35.8921 28.292L33.0968 25.4868Z" fill="#7210FF"/>
</svg>
