<svg width="16" height="16" viewBox="0 0 16 16" fill="none" xmlns="http://www.w3.org/2000/svg">
<path d="M12.128 12.4553H14.2882C14.5413 12.4553 14.7464 12.2501 14.7464 11.997V7.10944C14.7464 5.42235 13.3787 4.05469 11.6916 4.05469H4.05475C2.36766 4.05469 1 5.42235 1 7.10944V11.997C1 12.2501 1.20515 12.4553 1.45821 12.4553H3.61836" stroke="#262626" stroke-width="1.5"/>
<path d="M4.81836 4.05475V1.45821C4.81836 1.20515 5.02351 1 5.27657 1H10.4696C10.7227 1 10.9279 1.20515 10.9279 1.45821V4.05475" stroke="#262626" stroke-width="1.5"/>
<path d="M3.36602 14.2232L3.61859 12.4551L3.99879 9.79377C4.03104 9.5681 4.22437 9.40039 4.4524 9.40039H11.2945C11.5225 9.40039 11.7158 9.5681 11.7481 9.79377L12.1283 12.4551L12.3808 14.2232C12.4203 14.4992 12.2061 14.7462 11.9273 14.7462H3.81963C3.54078 14.7462 3.32658 14.4992 3.36602 14.2232Z" stroke="#262626" stroke-width="1.5"/>
<path d="M11.6914 6.35511L11.6999 6.3457" stroke="#262626" stroke-width="1.5" stroke-linecap="round" stroke-linejoin="round"/>
</svg>
