<svg width="21" height="26" viewBox="0 0 21 26" fill="none" xmlns="http://www.w3.org/2000/svg">
<path d="M17.8222 5.94716C17.8845 2.68899 15.214 0.189453 11.5419 0.189453H3.94641C3.76941 0.189369 3.59819 0.252895 3.46361 0.368588C3.32903 0.48428 3.23992 0.644534 3.21234 0.820483L0.16902 19.958C0.155404 20.0447 0.160625 20.1334 0.184324 20.2179C0.208024 20.3024 0.249638 20.3807 0.306302 20.4475C0.362966 20.5142 0.433334 20.5679 0.512561 20.6046C0.591787 20.6414 0.67799 20.6604 0.765235 20.6605H5.26506L4.56182 25.0917C4.5482 25.1784 4.55342 25.2671 4.57712 25.3516C4.60082 25.4361 4.64244 25.5144 4.6991 25.5812C4.75576 25.6479 4.82613 25.7016 4.90536 25.7383C4.98458 25.7751 5.07079 25.7941 5.15803 25.7942H8.82374C9.00057 25.7942 9.1582 25.7304 9.29315 25.615C9.42693 25.4991 9.44904 25.3393 9.47696 25.1631L10.5531 18.792C10.5804 18.6163 10.6694 18.3881 10.8038 18.2721C10.9381 18.1562 11.0556 18.093 11.233 18.093H13.476C17.0725 18.093 20.1233 15.5203 20.6812 11.9425C21.0761 9.40319 19.9942 7.09215 17.8222 5.94658V5.94716Z" fill="#001C64"/>
<path d="M6.23875 13.6033L5.11787 20.7554L4.41405 25.2417C4.40051 25.3284 4.40582 25.4171 4.42959 25.5015C4.45337 25.586 4.49505 25.6643 4.55177 25.731C4.60849 25.7977 4.6789 25.8512 4.75815 25.8879C4.8374 25.9246 4.92361 25.9436 5.01084 25.9435H8.8906C9.06744 25.9435 9.23843 25.8799 9.3728 25.7642C9.50716 25.6485 9.59607 25.4883 9.62351 25.3125L10.6461 18.7921C10.6737 18.6162 10.7627 18.456 10.8971 18.3404C11.0316 18.2247 11.2027 18.1611 11.3796 18.161H13.6632C17.2597 18.161 20.3106 15.521 20.869 11.9432C21.2645 9.40388 19.9942 7.09284 17.8222 5.94727C17.8164 6.21771 17.7931 6.48756 17.7518 6.75508C17.194 10.3317 14.142 12.9723 10.5466 12.9723H6.97224C6.79529 12.9725 6.62421 13.0362 6.48976 13.152C6.35531 13.2678 6.26631 13.428 6.23875 13.6039" fill="#0070E0"/>
<path d="M5.11692 20.7549H0.603132C0.515905 20.7549 0.429719 20.7359 0.350514 20.6991C0.27131 20.6623 0.200973 20.6087 0.144353 20.5419C0.0877325 20.4751 0.0461762 20.3968 0.0225494 20.3123C-0.00107731 20.2278 -0.00621244 20.1392 0.00749816 20.0525L3.05081 0.63103C3.07838 0.45518 3.1674 0.295004 3.30187 0.179324C3.43633 0.0636445 3.6074 5.56564e-05 3.7843 0H11.5415C15.2136 0 17.8841 2.68919 17.8218 5.94678C16.908 5.46444 15.8343 5.18873 14.6581 5.18873H8.19106C8.01406 5.18864 7.84285 5.25217 7.70826 5.36786C7.57368 5.48355 7.48457 5.64381 7.45699 5.81976L6.23897 13.6028L5.11633 20.7549H5.11692Z" fill="#003087"/>
</svg>
