<svg width="20" height="20" viewBox="0 0 20 20" fill="none" xmlns="http://www.w3.org/2000/svg">
<path d="M14.8504 4.95003C14.9423 5.04199 15.0067 5.1577 15.0365 5.28422C15.0664 5.41073 15.0604 5.54305 15.0192 5.66635L10.5639 19.0323C10.522 19.1577 10.4455 19.2686 10.3432 19.3523C10.2408 19.436 10.1169 19.489 9.98578 19.5052C9.85461 19.5214 9.72154 19.5001 9.60194 19.4439C9.48235 19.3876 9.38112 19.2987 9.30996 19.1873L5.92787 13.8726L0.613645 10.491C0.502116 10.4199 0.413 10.3187 0.356615 10.1991C0.30023 10.0794 0.278882 9.94629 0.295043 9.81503C0.311205 9.68377 0.364214 9.55977 0.447934 9.4574C0.531653 9.35502 0.642659 9.27845 0.768097 9.23655L14.1341 4.78122C14.2574 4.74009 14.3897 4.73409 14.5162 4.76391C14.6427 4.79372 14.7585 4.85817 14.8504 4.95003ZM7.32684 13.4637L9.70104 17.1943L12.7534 8.03708L7.32684 13.4637ZM11.7634 7.047L2.60617 10.0994L6.33677 12.4736L11.7634 7.047Z" fill="#262626"/>
</svg>
