<svg width="60" height="60" viewBox="0 0 60 60" fill="none" xmlns="http://www.w3.org/2000/svg">
<circle cx="30" cy="30" r="30" fill="#EEEEEE"/>
<path d="M22 34.7368C22 35.6632 22.39 36.4947 23 37.0737V38.9474C23 39.5263 23.45 40 24 40H25C25.55 40 26 39.5263 26 38.9474V37.8947H34V38.9474C34 39.5263 34.45 40 35 40H36C36.55 40 37 39.5263 37 38.9474V37.0737C37.61 36.4947 38 35.6632 38 34.7368V24.2105C38 20.5263 34.42 20 30 20C25.58 20 22 20.5263 22 24.2105V34.7368ZM25.5 35.7895C24.67 35.7895 24 35.0842 24 34.2105C24 33.3368 24.67 32.6316 25.5 32.6316C26.33 32.6316 27 33.3368 27 34.2105C27 35.0842 26.33 35.7895 25.5 35.7895ZM34.5 35.7895C33.67 35.7895 33 35.0842 33 34.2105C33 33.3368 33.67 32.6316 34.5 32.6316C35.33 32.6316 36 33.3368 36 34.2105C36 35.0842 35.33 35.7895 34.5 35.7895ZM36 29.4737H24V24.2105H36V29.4737Z" fill="#7210FF"/>
</svg>
