<svg width="32" height="25" viewBox="0 0 32 25" fill="none" xmlns="http://www.w3.org/2000/svg">
<path fill-rule="evenodd" clip-rule="evenodd" d="M3.55556 24.8568H28.4444C30.4082 24.8568 32 23.1956 32 21.1462V17.7929H24.1337C21.4425 17.7929 19.2608 15.6113 19.2608 12.9201C19.2608 10.2288 21.4425 8.04717 24.1337 8.04717H32V4.44882C32 2.39954 30.4082 0.738281 28.4444 0.738281H3.55556C1.59188 0.738281 0 2.39954 0 4.44882V21.1462C0 23.1956 1.59188 24.8568 3.55556 24.8568ZM32 9.04717H24.1337C21.9948 9.04717 20.2608 10.7811 20.2608 12.9201C20.2608 15.059 21.9948 16.7929 24.1337 16.7929H32V9.04717ZM26.2653 14.139C25.6207 14.139 25.098 13.5935 25.098 12.9208C25.098 12.2481 25.6207 11.7026 26.2653 11.7026C26.9099 11.7026 27.4326 12.2481 27.4326 12.9208C27.4326 13.5935 26.9099 14.139 26.2653 14.139ZM6.7508 3.78468C6.2462 3.78468 5.83714 4.19374 5.83714 4.69835C5.83714 5.20295 6.2462 5.61201 6.7508 5.61201H11.9275C12.4321 5.61201 12.8412 5.20295 12.8412 4.69835C12.8412 4.19374 12.4321 3.78468 11.9275 3.78468H6.7508Z" fill="url(#paint0_linear_466_3166)"/>
<defs>
<linearGradient id="paint0_linear_466_3166" x1="-0.00835247" y1="12.7951" x2="32.0065" y2="12.7951" gradientUnits="userSpaceOnUse">
<stop stop-color="#8948E7"/>
<stop offset="1" stop-color="#7210FF"/>
</linearGradient>
</defs>
</svg>
