<svg width="79" height="84" viewBox="0 0 79 84" fill="none" xmlns="http://www.w3.org/2000/svg">
<g id="Group 99">
<circle id="Ellipse 1" cx="40" cy="52" r="32" fill="url(#paint0_linear_463_2785)"/>
<circle id="Ellipse 2" cx="2.97841" cy="2.97841" r="2.97841" transform="matrix(-1 0 0 1 76.5874 19.1465)" fill="url(#paint1_linear_463_2785)"/>
<circle id="Ellipse 3" cx="4.04212" cy="4.04212" r="4.04212" transform="matrix(-1 0 0 1 10.4243 10.4238)" fill="url(#paint2_linear_463_2785)"/>
<circle id="Ellipse 4" cx="2.12743" cy="2.12743" r="2.12743" transform="matrix(-1 0 0 1 4.25488 63.8242)" fill="url(#paint3_linear_463_2785)"/>
<circle id="Ellipse 5" cx="1.27646" cy="1.27646" r="1.27646" transform="matrix(-1 0 0 1 4.68018 42.3359)" fill="url(#paint4_linear_463_2785)"/>
<circle id="Ellipse 7" cx="1.27646" cy="1.27646" r="1.27646" transform="matrix(-1 0 0 1 29.9966 0)" fill="url(#paint5_linear_463_2785)"/>
<circle id="Ellipse 8" cx="1.4892" cy="1.4892" r="1.4892" transform="matrix(-1 0 0 1 60.2065 5.53125)" fill="url(#paint6_linear_463_2785)"/>
<circle id="Ellipse 10" cx="1.4892" cy="1.4892" r="1.4892" transform="matrix(-1 0 0 1 78.0767 59.1426)" fill="url(#paint7_linear_463_2785)"/>
<circle id="Ellipse 6" cx="0.63823" cy="0.63823" r="0.63823" transform="matrix(-1 0 0 1 12.1265 27.8691)" fill="url(#paint8_linear_463_2785)"/>
<circle id="Ellipse 9" cx="0.63823" cy="0.63823" r="0.63823" transform="matrix(-1 0 0 1 76.375 41.9102)" fill="url(#paint9_linear_463_2785)"/>
<path id="Vector" d="M39.5527 39.9258C42.4032 39.9258 44.7042 42.2268 44.7042 45.0774C44.7042 47.9279 42.4032 50.2289 39.5527 50.2289C36.7021 50.2289 34.4011 47.9279 34.4011 45.0774C34.4011 42.2268 36.7021 39.9258 39.5527 39.9258ZM39.5527 64.3099C35.2597 64.3099 31.4647 62.1119 29.2495 58.7805C29.301 55.3633 36.1183 53.4916 39.5527 53.4916C42.9699 53.4916 49.8043 55.3633 49.8558 58.7805C47.6406 62.1119 43.8456 64.3099 39.5527 64.3099Z" fill="white"/>
</g>
<defs>
<linearGradient id="paint0_linear_463_2785" x1="7.9833" y1="51.9936" x2="72.013" y2="51.9936" gradientUnits="userSpaceOnUse">
<stop stop-color="#FF8395"/>
<stop offset="1" stop-color="#FF546D"/>
</linearGradient>
<linearGradient id="paint1_linear_463_2785" x1="-0.00155482" y1="2.97781" x2="5.95802" y2="2.97781" gradientUnits="userSpaceOnUse">
<stop stop-color="#FF8395"/>
<stop offset="1" stop-color="#FF546D"/>
</linearGradient>
<linearGradient id="paint2_linear_463_2785" x1="-0.00211011" y1="4.04131" x2="8.08588" y2="4.04131" gradientUnits="userSpaceOnUse">
<stop stop-color="#FF8395"/>
<stop offset="1" stop-color="#FF546D"/>
</linearGradient>
<linearGradient id="paint3_linear_463_2785" x1="-0.00111058" y1="2.127" x2="4.25573" y2="2.127" gradientUnits="userSpaceOnUse">
<stop stop-color="#FF8395"/>
<stop offset="1" stop-color="#FF546D"/>
</linearGradient>
<linearGradient id="paint4_linear_463_2785" x1="-0.000666349" y1="1.2762" x2="2.55344" y2="1.2762" gradientUnits="userSpaceOnUse">
<stop stop-color="#FF8395"/>
<stop offset="1" stop-color="#FF546D"/>
</linearGradient>
<linearGradient id="paint5_linear_463_2785" x1="-0.000666349" y1="1.2762" x2="2.55344" y2="1.2762" gradientUnits="userSpaceOnUse">
<stop stop-color="#FF8395"/>
<stop offset="1" stop-color="#FF546D"/>
</linearGradient>
<linearGradient id="paint6_linear_463_2785" x1="-0.000777408" y1="1.4889" x2="2.97901" y2="1.4889" gradientUnits="userSpaceOnUse">
<stop stop-color="#FF8395"/>
<stop offset="1" stop-color="#FF546D"/>
</linearGradient>
<linearGradient id="paint7_linear_463_2785" x1="-0.000777408" y1="1.4889" x2="2.97901" y2="1.4889" gradientUnits="userSpaceOnUse">
<stop stop-color="#FF8395"/>
<stop offset="1" stop-color="#FF546D"/>
</linearGradient>
<linearGradient id="paint8_linear_463_2785" x1="-0.000333175" y1="0.638102" x2="1.27672" y2="0.638102" gradientUnits="userSpaceOnUse">
<stop stop-color="#FF8395"/>
<stop offset="1" stop-color="#FF546D"/>
</linearGradient>
<linearGradient id="paint9_linear_463_2785" x1="-0.000333175" y1="0.638102" x2="1.27672" y2="0.638102" gradientUnits="userSpaceOnUse">
<stop stop-color="#FF8395"/>
<stop offset="1" stop-color="#FF546D"/>
</linearGradient>
</defs>
</svg>
